<mxfile host="app.diagrams.net" modified="2024-03-26T18:57:15.138Z" agent="Mozilla/5.0 (Windows NT 10.0; Win64; x64) AppleWebKit/537.36 (KHTML, like Gecko) Chrome/123.0.0.0 Safari/537.36" etag="yY4IdsfKWY2JUgKaVua2" version="24.1.0" type="device">
  <diagram name="Page-1" id="3mf1oYNqNrLiSjZq4NOY">
    <mxGraphModel dx="2478" dy="967" grid="1" gridSize="10" guides="1" tooltips="1" connect="1" arrows="1" fold="1" page="1" pageScale="1" pageWidth="850" pageHeight="1100" math="0" shadow="0">
      <root>
        <mxCell id="0" />
        <mxCell id="1" parent="0" />
        <mxCell id="_B4ZgTSannWzdzuuo0Sc-11" value="" style="verticalLabelPosition=bottom;verticalAlign=top;html=1;shape=card;whiteSpace=wrap;size=20;arcSize=12;" parent="1" vertex="1">
          <mxGeometry x="-850" width="260" height="220" as="geometry" />
        </mxCell>
        <mxCell id="lXu_9EbqTNmBkq21Yog8-1" value="Patient" style="whiteSpace=wrap;html=1;align=center;fillColor=#d5e8d4;strokeColor=#82b366;" parent="1" vertex="1">
          <mxGeometry x="-469" y="450" width="102" height="42" as="geometry" />
        </mxCell>
        <mxCell id="lXu_9EbqTNmBkq21Yog8-2" value="PatientID" style="ellipse;whiteSpace=wrap;html=1;align=center;fontStyle=4;fillColor=#ffe6cc;strokeColor=#d79b00;" parent="1" vertex="1">
          <mxGeometry x="-367" y="450" width="100" height="40" as="geometry" />
        </mxCell>
        <mxCell id="lXu_9EbqTNmBkq21Yog8-4" value="" style="edgeStyle=entityRelationEdgeStyle;fontSize=12;html=1;endArrow=ERzeroToMany;startArrow=ERmandOne;rounded=0;entryX=1;entryY=0;entryDx=0;entryDy=0;exitX=0;exitY=1;exitDx=0;exitDy=0;" parent="1" source="lXu_9EbqTNmBkq21Yog8-1" target="_B4ZgTSannWzdzuuo0Sc-51" edge="1">
          <mxGeometry width="100" height="100" relative="1" as="geometry">
            <mxPoint x="-374" y="480" as="sourcePoint" />
            <mxPoint x="-585" y="669" as="targetPoint" />
          </mxGeometry>
        </mxCell>
        <mxCell id="lXu_9EbqTNmBkq21Yog8-6" value="Medicine Ordered" style="whiteSpace=wrap;html=1;align=center;fillColor=#d5e8d4;strokeColor=#82b366;" parent="1" vertex="1">
          <mxGeometry x="-476" y="780" width="100" height="40" as="geometry" />
        </mxCell>
        <mxCell id="lXu_9EbqTNmBkq21Yog8-7" value="Employee ID" style="ellipse;whiteSpace=wrap;html=1;align=center;fontStyle=4;fillColor=#ffe6cc;strokeColor=#d79b00;" parent="1" vertex="1">
          <mxGeometry x="-520" y="281" width="100" height="40" as="geometry" />
        </mxCell>
        <mxCell id="lXu_9EbqTNmBkq21Yog8-9" value="Department" style="whiteSpace=wrap;html=1;align=center;fillColor=#d5e8d4;strokeColor=#82b366;" parent="1" vertex="1">
          <mxGeometry x="-252.5" y="173" width="100" height="40" as="geometry" />
        </mxCell>
        <mxCell id="lXu_9EbqTNmBkq21Yog8-10" value="Vital Signs" style="whiteSpace=wrap;html=1;align=center;fillColor=#d5e8d4;strokeColor=#82b366;" parent="1" vertex="1">
          <mxGeometry x="-295" y="660" width="100" height="40" as="geometry" />
        </mxCell>
        <mxCell id="lXu_9EbqTNmBkq21Yog8-11" value="O2" style="ellipse;whiteSpace=wrap;html=1;align=center;" parent="1" vertex="1">
          <mxGeometry x="-105" y="640" width="100" height="40" as="geometry" />
        </mxCell>
        <mxCell id="lXu_9EbqTNmBkq21Yog8-12" value="Pain" style="ellipse;whiteSpace=wrap;html=1;align=center;" parent="1" vertex="1">
          <mxGeometry x="-197.5" y="700" width="100" height="40" as="geometry" />
        </mxCell>
        <mxCell id="lXu_9EbqTNmBkq21Yog8-13" value="RR" style="ellipse;whiteSpace=wrap;html=1;align=center;" parent="1" vertex="1">
          <mxGeometry x="-105" y="590" width="100" height="40" as="geometry" />
        </mxCell>
        <mxCell id="lXu_9EbqTNmBkq21Yog8-14" value="HR" style="ellipse;whiteSpace=wrap;html=1;align=center;" parent="1" vertex="1">
          <mxGeometry x="-195" y="655" width="100" height="40" as="geometry" />
        </mxCell>
        <mxCell id="lXu_9EbqTNmBkq21Yog8-15" value="Diastolic BP" style="ellipse;whiteSpace=wrap;html=1;align=center;" parent="1" vertex="1">
          <mxGeometry x="-192.5" y="612" width="100" height="40" as="geometry" />
        </mxCell>
        <mxCell id="lXu_9EbqTNmBkq21Yog8-16" value="SystolicBP" style="ellipse;whiteSpace=wrap;html=1;align=center;" parent="1" vertex="1">
          <mxGeometry x="-197.5" y="572" width="100" height="40" as="geometry" />
        </mxCell>
        <mxCell id="lXu_9EbqTNmBkq21Yog8-17" style="edgeStyle=orthogonalEdgeStyle;rounded=0;orthogonalLoop=1;jettySize=auto;html=1;exitX=1;exitY=0.5;exitDx=0;exitDy=0;entryX=0;entryY=0.5;entryDx=0;entryDy=0;" parent="1" source="lXu_9EbqTNmBkq21Yog8-18" target="_B4ZgTSannWzdzuuo0Sc-54" edge="1">
          <mxGeometry relative="1" as="geometry">
            <mxPoint x="-240" y="800" as="targetPoint" />
          </mxGeometry>
        </mxCell>
        <mxCell id="lXu_9EbqTNmBkq21Yog8-18" value="Medication ID" style="ellipse;whiteSpace=wrap;html=1;align=center;fontStyle=4;fillColor=#ffe6cc;strokeColor=#d79b00;" parent="1" vertex="1">
          <mxGeometry x="-374" y="780" width="100" height="40" as="geometry" />
        </mxCell>
        <mxCell id="lXu_9EbqTNmBkq21Yog8-19" value="Employee" style="whiteSpace=wrap;html=1;align=center;fillColor=#d5e8d4;strokeColor=#82b366;" parent="1" vertex="1">
          <mxGeometry x="-476" y="321" width="100" height="40" as="geometry" />
        </mxCell>
        <mxCell id="lXu_9EbqTNmBkq21Yog8-20" value="Name" style="ellipse;whiteSpace=wrap;html=1;align=center;" parent="1" vertex="1">
          <mxGeometry x="-845" y="273" width="100" height="37" as="geometry" />
        </mxCell>
        <mxCell id="lXu_9EbqTNmBkq21Yog8-21" value="Credentials" style="ellipse;whiteSpace=wrap;html=1;align=center;" parent="1" vertex="1">
          <mxGeometry x="-374" y="366" width="100" height="40" as="geometry" />
        </mxCell>
        <mxCell id="lXu_9EbqTNmBkq21Yog8-22" value="Pin#" style="ellipse;whiteSpace=wrap;html=1;align=center;" parent="1" vertex="1">
          <mxGeometry x="-278" y="340" width="100" height="40" as="geometry" />
        </mxCell>
        <mxCell id="lXu_9EbqTNmBkq21Yog8-23" value="Gender" style="ellipse;whiteSpace=wrap;html=1;align=center;" parent="1" vertex="1">
          <mxGeometry x="-845" y="310" width="100" height="40" as="geometry" />
        </mxCell>
        <mxCell id="lXu_9EbqTNmBkq21Yog8-24" value="Allergy" style="whiteSpace=wrap;html=1;align=center;fillColor=#f8cecc;strokeColor=#b85450;" parent="1" vertex="1">
          <mxGeometry x="-202.75" y="430" width="100" height="40" as="geometry" />
        </mxCell>
        <mxCell id="lXu_9EbqTNmBkq21Yog8-25" value="AllergyID" style="ellipse;whiteSpace=wrap;html=1;align=center;fontStyle=4;fillColor=#ffe6cc;strokeColor=#d79b00;" parent="1" vertex="1">
          <mxGeometry x="-102.25" y="400" width="100" height="40" as="geometry" />
        </mxCell>
        <mxCell id="lXu_9EbqTNmBkq21Yog8-26" value="Reaction" style="ellipse;whiteSpace=wrap;html=1;align=center;" parent="1" vertex="1">
          <mxGeometry x="-102.75" y="440" width="100" height="40" as="geometry" />
        </mxCell>
        <mxCell id="lXu_9EbqTNmBkq21Yog8-27" value="Birthdate" style="ellipse;whiteSpace=wrap;html=1;align=center;" parent="1" vertex="1">
          <mxGeometry x="-845" y="350" width="100" height="40" as="geometry" />
        </mxCell>
        <mxCell id="lXu_9EbqTNmBkq21Yog8-28" value="SSN" style="ellipse;whiteSpace=wrap;html=1;align=center;" parent="1" vertex="1">
          <mxGeometry x="-845" y="390" width="100" height="40" as="geometry" />
        </mxCell>
        <mxCell id="lXu_9EbqTNmBkq21Yog8-31" value="Frequency" style="ellipse;whiteSpace=wrap;html=1;align=center;" parent="1" vertex="1">
          <mxGeometry x="-433" y="740" width="100" height="40" as="geometry" />
        </mxCell>
        <mxCell id="lXu_9EbqTNmBkq21Yog8-32" value="Phone#" style="ellipse;whiteSpace=wrap;html=1;align=center;" parent="1" vertex="1">
          <mxGeometry x="-149" y="187" width="100" height="40" as="geometry" />
        </mxCell>
        <mxCell id="lXu_9EbqTNmBkq21Yog8-33" value="Name" style="ellipse;whiteSpace=wrap;html=1;align=center;" parent="1" vertex="1">
          <mxGeometry x="-152.5" y="143" width="100" height="40" as="geometry" />
        </mxCell>
        <mxCell id="lXu_9EbqTNmBkq21Yog8-34" value="Name(Brand)" style="ellipse;whiteSpace=wrap;html=1;align=center;" parent="1" vertex="1">
          <mxGeometry x="-205" y="790" width="100" height="40" as="geometry" />
        </mxCell>
        <mxCell id="lXu_9EbqTNmBkq21Yog8-35" value="Route" style="ellipse;whiteSpace=wrap;html=1;align=center;" parent="1" vertex="1">
          <mxGeometry x="-205" y="870" width="100" height="40" as="geometry" />
        </mxCell>
        <mxCell id="lXu_9EbqTNmBkq21Yog8-36" value="Dose" style="ellipse;whiteSpace=wrap;html=1;align=center;" parent="1" vertex="1">
          <mxGeometry x="-105" y="830" width="100" height="40" as="geometry" />
        </mxCell>
        <mxCell id="lXu_9EbqTNmBkq21Yog8-37" value="Name(Generic)" style="ellipse;whiteSpace=wrap;html=1;align=center;" parent="1" vertex="1">
          <mxGeometry x="-105" y="790" width="100" height="40" as="geometry" />
        </mxCell>
        <mxCell id="lXu_9EbqTNmBkq21Yog8-38" value="Role" style="ellipse;whiteSpace=wrap;html=1;align=center;" parent="1" vertex="1">
          <mxGeometry x="-376" y="321" width="100" height="40" as="geometry" />
        </mxCell>
        <mxCell id="lXu_9EbqTNmBkq21Yog8-41" value="Description" style="ellipse;whiteSpace=wrap;html=1;align=center;" parent="1" vertex="1">
          <mxGeometry x="-100" y="1050" width="100" height="40" as="geometry" />
        </mxCell>
        <mxCell id="lXu_9EbqTNmBkq21Yog8-43" value="Normal Values" style="ellipse;whiteSpace=wrap;html=1;align=center;" parent="1" vertex="1">
          <mxGeometry x="-100" y="1010" width="100" height="40" as="geometry" />
        </mxCell>
        <mxCell id="_B4ZgTSannWzdzuuo0Sc-19" style="edgeStyle=orthogonalEdgeStyle;rounded=0;orthogonalLoop=1;jettySize=auto;html=1;exitX=1;exitY=0;exitDx=0;exitDy=0;entryX=0;entryY=0.5;entryDx=0;entryDy=0;" parent="1" source="lXu_9EbqTNmBkq21Yog8-44" target="lXu_9EbqTNmBkq21Yog8-52" edge="1">
          <mxGeometry relative="1" as="geometry">
            <Array as="points">
              <mxPoint x="-335" y="150" />
            </Array>
          </mxGeometry>
        </mxCell>
        <mxCell id="lXu_9EbqTNmBkq21Yog8-44" value="Department ID" style="ellipse;whiteSpace=wrap;html=1;align=center;fontStyle=4;fillColor=#f5f5f5;strokeColor=#666666;gradientColor=#b3b3b3;" parent="1" vertex="1">
          <mxGeometry x="-420" y="281" width="100" height="40" as="geometry" />
        </mxCell>
        <mxCell id="lXu_9EbqTNmBkq21Yog8-66" style="edgeStyle=orthogonalEdgeStyle;rounded=0;orthogonalLoop=1;jettySize=auto;html=1;exitX=1;exitY=0.5;exitDx=0;exitDy=0;entryX=0;entryY=0.5;entryDx=0;entryDy=0;" parent="1" source="lXu_9EbqTNmBkq21Yog8-46" target="lXu_9EbqTNmBkq21Yog8-48" edge="1">
          <mxGeometry relative="1" as="geometry" />
        </mxCell>
        <mxCell id="lXu_9EbqTNmBkq21Yog8-46" value="Person" style="whiteSpace=wrap;html=1;align=center;fillColor=#d5e8d4;strokeColor=#82b366;" parent="1" vertex="1">
          <mxGeometry x="-745" y="310" width="99" height="56" as="geometry" />
        </mxCell>
        <mxCell id="lXu_9EbqTNmBkq21Yog8-68" style="edgeStyle=orthogonalEdgeStyle;rounded=0;orthogonalLoop=1;jettySize=auto;html=1;entryX=0;entryY=0.5;entryDx=0;entryDy=0;" parent="1" source="lXu_9EbqTNmBkq21Yog8-48" target="lXu_9EbqTNmBkq21Yog8-19" edge="1">
          <mxGeometry relative="1" as="geometry">
            <Array as="points">
              <mxPoint x="-505" y="385" />
              <mxPoint x="-505" y="341" />
            </Array>
          </mxGeometry>
        </mxCell>
        <mxCell id="lXu_9EbqTNmBkq21Yog8-69" style="edgeStyle=orthogonalEdgeStyle;rounded=0;orthogonalLoop=1;jettySize=auto;html=1;entryX=0;entryY=0.5;entryDx=0;entryDy=0;" parent="1" source="lXu_9EbqTNmBkq21Yog8-48" target="lXu_9EbqTNmBkq21Yog8-1" edge="1">
          <mxGeometry relative="1" as="geometry">
            <mxPoint x="-505" y="550" as="targetPoint" />
            <Array as="points">
              <mxPoint x="-505" y="385" />
              <mxPoint x="-505" y="471" />
            </Array>
          </mxGeometry>
        </mxCell>
        <mxCell id="lXu_9EbqTNmBkq21Yog8-48" value="is" style="shape=rhombus;perimeter=rhombusPerimeter;whiteSpace=wrap;html=1;align=center;fillColor=#dae8fc;strokeColor=#6c8ebf;" parent="1" vertex="1">
          <mxGeometry x="-610" y="360" width="73" height="50" as="geometry" />
        </mxCell>
        <mxCell id="lXu_9EbqTNmBkq21Yog8-51" value="LabTest" style="whiteSpace=wrap;html=1;align=center;fillColor=#d5e8d4;strokeColor=#82b366;" parent="1" vertex="1">
          <mxGeometry x="-474" y="1050" width="100" height="40" as="geometry" />
        </mxCell>
        <mxCell id="lXu_9EbqTNmBkq21Yog8-52" value="Department ID" style="ellipse;whiteSpace=wrap;html=1;align=center;fontStyle=4;fillColor=#ffe6cc;strokeColor=#d79b00;" parent="1" vertex="1">
          <mxGeometry x="-254" y="130" width="100" height="40" as="geometry" />
        </mxCell>
        <mxCell id="lXu_9EbqTNmBkq21Yog8-53" value="Admission Datetime" style="ellipse;whiteSpace=wrap;html=1;align=center;" parent="1" vertex="1">
          <mxGeometry x="-790" y="630" width="100" height="40" as="geometry" />
        </mxCell>
        <mxCell id="lXu_9EbqTNmBkq21Yog8-54" value="Discharge Datetime" style="ellipse;whiteSpace=wrap;html=1;align=center;" parent="1" vertex="1">
          <mxGeometry x="-790" y="670" width="105" height="45" as="geometry" />
        </mxCell>
        <mxCell id="lXu_9EbqTNmBkq21Yog8-55" value="Visit ID" style="ellipse;whiteSpace=wrap;html=1;align=center;fontStyle=4;fillColor=#ffe6cc;strokeColor=#d79b00;" parent="1" vertex="1">
          <mxGeometry x="-680" y="620" width="100" height="40" as="geometry" />
        </mxCell>
        <mxCell id="lXu_9EbqTNmBkq21Yog8-56" value="" style="edgeStyle=entityRelationEdgeStyle;fontSize=12;html=1;endArrow=ERoneToMany;startArrow=ERzeroToOne;rounded=0;exitX=1;exitY=1;exitDx=0;exitDy=0;entryX=0;entryY=0.5;entryDx=0;entryDy=0;" parent="1" source="_B4ZgTSannWzdzuuo0Sc-51" target="lXu_9EbqTNmBkq21Yog8-10" edge="1">
          <mxGeometry width="100" height="100" relative="1" as="geometry">
            <mxPoint x="-655" y="720" as="sourcePoint" />
            <mxPoint x="-371" y="1259" as="targetPoint" />
          </mxGeometry>
        </mxCell>
        <mxCell id="lXu_9EbqTNmBkq21Yog8-57" value="" style="edgeStyle=entityRelationEdgeStyle;fontSize=12;html=1;endArrow=ERzeroToMany;startArrow=ERmandOne;rounded=0;exitX=1;exitY=1;exitDx=0;exitDy=0;entryX=0;entryY=0.5;entryDx=0;entryDy=0;" parent="1" source="_B4ZgTSannWzdzuuo0Sc-51" target="lXu_9EbqTNmBkq21Yog8-6" edge="1">
          <mxGeometry width="100" height="100" relative="1" as="geometry">
            <mxPoint x="-655" y="720" as="sourcePoint" />
            <mxPoint x="-371" y="1259" as="targetPoint" />
            <Array as="points">
              <mxPoint x="-647" y="1310" />
            </Array>
          </mxGeometry>
        </mxCell>
        <mxCell id="lXu_9EbqTNmBkq21Yog8-59" value="Images" style="whiteSpace=wrap;html=1;align=center;fillColor=#d5e8d4;strokeColor=#82b366;" parent="1" vertex="1">
          <mxGeometry x="-474" y="890" width="100" height="40" as="geometry" />
        </mxCell>
        <mxCell id="lXu_9EbqTNmBkq21Yog8-60" value="Reports" style="whiteSpace=wrap;html=1;align=center;fillColor=#d5e8d4;strokeColor=#82b366;" parent="1" vertex="1">
          <mxGeometry x="-474" y="970" width="100" height="40" as="geometry" />
        </mxCell>
        <mxCell id="lXu_9EbqTNmBkq21Yog8-72" value="DateTime" style="ellipse;whiteSpace=wrap;html=1;align=center;" parent="1" vertex="1">
          <mxGeometry x="-297.5" y="572" width="100" height="40" as="geometry" />
        </mxCell>
        <mxCell id="DaxGYN8J9b3B02h8rSqA-1" value="Phone#" style="ellipse;whiteSpace=wrap;html=1;align=center;" parent="1" vertex="1">
          <mxGeometry x="-845" y="430" width="100" height="40" as="geometry" />
        </mxCell>
        <mxCell id="_B4ZgTSannWzdzuuo0Sc-4" value="VisitID" style="ellipse;whiteSpace=wrap;html=1;align=center;fontStyle=4;fillColor=#ffe6cc;strokeColor=#d79b00;" parent="1" vertex="1">
          <mxGeometry x="-297.5" y="615" width="100" height="40" as="geometry" />
        </mxCell>
        <mxCell id="_B4ZgTSannWzdzuuo0Sc-6" value="Entity" style="rounded=1;arcSize=10;whiteSpace=wrap;html=1;align=center;fillColor=#d5e8d4;strokeColor=#82b366;" parent="1" vertex="1">
          <mxGeometry x="-710" width="100" height="40" as="geometry" />
        </mxCell>
        <mxCell id="_B4ZgTSannWzdzuuo0Sc-8" value="Primary Key" style="ellipse;whiteSpace=wrap;html=1;align=center;fontStyle=4;fillColor=#ffe6cc;strokeColor=#d79b00;" parent="1" vertex="1">
          <mxGeometry x="-713.5" y="50" width="100" height="40" as="geometry" />
        </mxCell>
        <mxCell id="_B4ZgTSannWzdzuuo0Sc-16" value="Relationship" style="shape=rhombus;perimeter=rhombusPerimeter;whiteSpace=wrap;html=1;align=center;fillColor=#dae8fc;strokeColor=#6c8ebf;" parent="1" vertex="1">
          <mxGeometry x="-706.5" y="150" width="93" height="63" as="geometry" />
        </mxCell>
        <mxCell id="_B4ZgTSannWzdzuuo0Sc-9" value="Foreign Key" style="ellipse;whiteSpace=wrap;html=1;align=center;fontStyle=4;fillColor=#f5f5f5;gradientColor=#b3b3b3;strokeColor=#666666;" parent="1" vertex="1">
          <mxGeometry x="-710" y="103" width="100" height="40" as="geometry" />
        </mxCell>
        <mxCell id="_B4ZgTSannWzdzuuo0Sc-12" value="" style="verticalLabelPosition=bottom;verticalAlign=top;html=1;shape=mxgraph.flowchart.on-page_reference;" parent="1" vertex="1">
          <mxGeometry x="-850" y="10" width="120" height="120" as="geometry" />
        </mxCell>
        <mxCell id="_B4ZgTSannWzdzuuo0Sc-13" value="Legend" style="text;strokeColor=none;fillColor=none;html=1;fontSize=24;fontStyle=1;verticalAlign=middle;align=center;" parent="1" vertex="1">
          <mxGeometry x="-840" y="50" width="100" height="40" as="geometry" />
        </mxCell>
        <mxCell id="_B4ZgTSannWzdzuuo0Sc-18" value="&lt;font style=&quot;font-size: 29px;&quot;&gt;&lt;b&gt;Hospital Database&lt;/b&gt;&lt;/font&gt;" style="shape=ext;double=1;rounded=1;whiteSpace=wrap;html=1;fillColor=#60a917;strokeColor=#2D7600;fontColor=#ffffff;" parent="1" vertex="1">
          <mxGeometry x="-591.5" width="349" height="110" as="geometry" />
        </mxCell>
        <mxCell id="_B4ZgTSannWzdzuuo0Sc-21" value="PatientID" style="ellipse;whiteSpace=wrap;html=1;align=center;fontStyle=4;fillColor=#ffe6cc;strokeColor=#d79b00;" parent="1" vertex="1">
          <mxGeometry x="-678" y="702" width="100" height="40" as="geometry" />
        </mxCell>
        <mxCell id="_B4ZgTSannWzdzuuo0Sc-23" value="Start datetime" style="ellipse;whiteSpace=wrap;html=1;align=center;" parent="1" vertex="1">
          <mxGeometry x="-433" y="820" width="100" height="40" as="geometry" />
        </mxCell>
        <mxCell id="_B4ZgTSannWzdzuuo0Sc-26" value="WorkPhone" style="ellipse;whiteSpace=wrap;html=1;align=center;" parent="1" vertex="1">
          <mxGeometry x="-282.5" y="300" width="100" height="40" as="geometry" />
        </mxCell>
        <mxCell id="_B4ZgTSannWzdzuuo0Sc-43" value="" style="shape=curlyBracket;whiteSpace=wrap;html=1;rounded=1;flipH=1;labelPosition=right;verticalLabelPosition=middle;align=left;verticalAlign=middle;" parent="1" vertex="1">
          <mxGeometry x="-361" y="880" width="20" height="210" as="geometry" />
        </mxCell>
        <mxCell id="_B4ZgTSannWzdzuuo0Sc-62" style="edgeStyle=orthogonalEdgeStyle;rounded=0;orthogonalLoop=1;jettySize=auto;html=1;exitX=1;exitY=0.5;exitDx=0;exitDy=0;entryX=0;entryY=0.5;entryDx=0;entryDy=0;" parent="1" source="_B4ZgTSannWzdzuuo0Sc-44" target="_B4ZgTSannWzdzuuo0Sc-63" edge="1">
          <mxGeometry relative="1" as="geometry">
            <mxPoint x="-160" y="1020" as="targetPoint" />
            <Array as="points">
              <mxPoint x="-241" y="930" />
              <mxPoint x="-220" y="930" />
              <mxPoint x="-220" y="1050" />
            </Array>
          </mxGeometry>
        </mxCell>
        <mxCell id="_B4ZgTSannWzdzuuo0Sc-44" value="ID" style="ellipse;whiteSpace=wrap;html=1;align=center;fontStyle=4;fillColor=#ffe6cc;strokeColor=#d79b00;" parent="1" vertex="1">
          <mxGeometry x="-341" y="890" width="100" height="40" as="geometry" />
        </mxCell>
        <mxCell id="_B4ZgTSannWzdzuuo0Sc-45" value="Type" style="ellipse;whiteSpace=wrap;html=1;align=center;" parent="1" vertex="1">
          <mxGeometry x="-341" y="970" width="100" height="40" as="geometry" />
        </mxCell>
        <mxCell id="_B4ZgTSannWzdzuuo0Sc-46" value="UploadDate" style="ellipse;whiteSpace=wrap;html=1;align=center;" parent="1" vertex="1">
          <mxGeometry x="-341" y="1010" width="100" height="40" as="geometry" />
        </mxCell>
        <mxCell id="_B4ZgTSannWzdzuuo0Sc-47" value="VisitID" style="ellipse;whiteSpace=wrap;html=1;align=center;fillColor=#f5f5f5;gradientColor=#b3b3b3;strokeColor=#666666;" parent="1" vertex="1">
          <mxGeometry x="-341" y="930" width="100" height="40" as="geometry" />
        </mxCell>
        <mxCell id="_B4ZgTSannWzdzuuo0Sc-48" value="Content" style="ellipse;whiteSpace=wrap;html=1;align=center;" parent="1" vertex="1">
          <mxGeometry x="-341" y="1050" width="100" height="40" as="geometry" />
        </mxCell>
        <mxCell id="_B4ZgTSannWzdzuuo0Sc-50" value="PersonID" style="ellipse;whiteSpace=wrap;html=1;align=center;fontStyle=4;fillColor=#ffe6cc;strokeColor=#d79b00;" parent="1" vertex="1">
          <mxGeometry x="-845" y="233" width="100" height="40" as="geometry" />
        </mxCell>
        <mxCell id="_B4ZgTSannWzdzuuo0Sc-51" value="Visit" style="whiteSpace=wrap;html=1;align=center;fillColor=#d5e8d4;strokeColor=#82b366;" parent="1" vertex="1">
          <mxGeometry x="-680" y="660" width="102" height="42" as="geometry" />
        </mxCell>
        <mxCell id="_B4ZgTSannWzdzuuo0Sc-54" value="Medicine" style="whiteSpace=wrap;html=1;align=center;fillColor=#d5e8d4;strokeColor=#82b366;" parent="1" vertex="1">
          <mxGeometry x="-205" y="830" width="100" height="40" as="geometry" />
        </mxCell>
        <mxCell id="_B4ZgTSannWzdzuuo0Sc-56" value="Measurement" style="ellipse;whiteSpace=wrap;html=1;align=center;" parent="1" vertex="1">
          <mxGeometry x="-105" y="870" width="100" height="40" as="geometry" />
        </mxCell>
        <mxCell id="_B4ZgTSannWzdzuuo0Sc-57" value="" style="edgeStyle=entityRelationEdgeStyle;fontSize=12;html=1;endArrow=ERzeroToMany;startArrow=ERmandOne;rounded=0;exitX=1;exitY=1;exitDx=0;exitDy=0;entryX=0;entryY=0.5;entryDx=0;entryDy=0;" parent="1" source="_B4ZgTSannWzdzuuo0Sc-51" target="lXu_9EbqTNmBkq21Yog8-59" edge="1">
          <mxGeometry width="100" height="100" relative="1" as="geometry">
            <mxPoint x="-568" y="712" as="sourcePoint" />
            <mxPoint x="-466" y="810" as="targetPoint" />
            <Array as="points">
              <mxPoint x="-637" y="1320" />
            </Array>
          </mxGeometry>
        </mxCell>
        <mxCell id="_B4ZgTSannWzdzuuo0Sc-58" value="" style="edgeStyle=entityRelationEdgeStyle;fontSize=12;html=1;endArrow=ERzeroToMany;startArrow=ERmandOne;rounded=0;exitX=1;exitY=1;exitDx=0;exitDy=0;entryX=0;entryY=0.5;entryDx=0;entryDy=0;" parent="1" source="_B4ZgTSannWzdzuuo0Sc-51" target="lXu_9EbqTNmBkq21Yog8-60" edge="1">
          <mxGeometry width="100" height="100" relative="1" as="geometry">
            <mxPoint x="-568" y="712" as="sourcePoint" />
            <mxPoint x="-423" y="980" as="targetPoint" />
            <Array as="points">
              <mxPoint x="-627" y="1330" />
            </Array>
          </mxGeometry>
        </mxCell>
        <mxCell id="_B4ZgTSannWzdzuuo0Sc-59" value="" style="edgeStyle=entityRelationEdgeStyle;fontSize=12;html=1;endArrow=ERzeroToMany;startArrow=ERmandOne;rounded=0;exitX=1;exitY=1;exitDx=0;exitDy=0;entryX=0;entryY=0.5;entryDx=0;entryDy=0;" parent="1" source="_B4ZgTSannWzdzuuo0Sc-51" target="lXu_9EbqTNmBkq21Yog8-51" edge="1">
          <mxGeometry width="100" height="100" relative="1" as="geometry">
            <mxPoint x="-558" y="722" as="sourcePoint" />
            <mxPoint x="-413" y="990" as="targetPoint" />
            <Array as="points">
              <mxPoint x="-617" y="1340" />
            </Array>
          </mxGeometry>
        </mxCell>
        <mxCell id="_B4ZgTSannWzdzuuo0Sc-63" value="Test" style="whiteSpace=wrap;html=1;align=center;fillColor=#d5e8d4;strokeColor=#82b366;" parent="1" vertex="1">
          <mxGeometry x="-205" y="1030" width="100" height="40" as="geometry" />
        </mxCell>
      </root>
    </mxGraphModel>
  </diagram>
</mxfile>
